# xmcd
# 
# Track frame offsets:
#     150
#     39820
#     68752
#     108157
#     154565
#     183017
#     219209
#     242932
# 
# Disc length: 4021
# 
# Revision: 1
# Processed by: cddbd v1.5.2PL0 Copyright (c) Steve Scherf et al.
# Submitted via: BonkEnc v1.0.8
# 
DISCID=570fb308
DTITLE=Eric Clapton - Scope-1975-08-30 - Disc 1  
DYEAR=0
DGENRE=
TTITLE0=Layla
TTITLE1=Bell Bottom Blues
TTITLE2=Key To The Highway
TTITLE3=Mainline Florida
TTITLE4=Can't Find My Way Home
TTITLE5=Further On Up The Road
TTITLE6=Knockin' On Heavens Door
TTITLE7=Blues Power
EXTD=
EXTT0=
EXTT1=
EXTT2=
EXTT3=
EXTT4=
EXTT5=
EXTT6=
EXTT7=
PLAYORDER=
